<?xml version="1.0" standalone="no"?>
<!DOCTYPE svg PUBLIC "-//W3C//DTD SVG 20010904//EN"
 "http://www.w3.org/TR/2001/REC-SVG-20010904/DTD/svg10.dtd">
<svg version="1.0" xmlns="http://www.w3.org/2000/svg"
 width="1168.000000pt" height="1168.000000pt" viewBox="0 0 1168.000000 1168.000000"
 preserveAspectRatio="xMidYMid meet">
<metadata>
Created by potrace 1.14, written by Peter Selinger 2001-2017
</metadata>
<g transform="translate(0.000000,1168.000000) scale(0.100000,-0.100000)"
fill="#000000" stroke="none">
<path d="M10808 8788 c-2 -7 -3 -461 -2 -1010 l1 -996 -21 9 c-12 5 -29 12
-38 15 -10 4 -18 10 -18 15 0 5 -8 9 -18 9 -10 0 -22 4 -27 9 -41 36 -391 155
-516 175 -20 3 -42 8 -50 10 -16 6 -52 11 -149 23 -81 10 -422 10 -510 1 -72
-8 -81 -10 -250 -42 -92 -18 -312 -90 -407 -133 -32 -15 -60 -27 -63 -28 -19
-4 -175 -89 -219 -119 -29 -20 -57 -36 -61 -36 -5 0 -15 -6 -22 -13 -7 -7 -42
-33 -78 -59 -170 -121 -370 -317 -475 -464 -11 -15 -30 -40 -42 -55 -13 -15
-23 -31 -23 -37 0 -6 -3 -12 -8 -14 -8 -3 -112 -163 -112 -171 0 -3 -15 -31
-33 -64 -93 -166 -195 -465 -221 -648 -3 -22 -8 -51 -11 -65 -18 -89 -25 -423
-12 -555 12 -106 16 -139 22 -165 3 -14 8 -40 11 -59 14 -82 47 -204 85 -311
39 -108 49 -132 116 -265 54 -108 198 -335 244 -386 13 -14 37 -43 54 -65 53
-70 248 -257 352 -336 l101 -78 1636 0 1636 0 0 2960 0 2960 -434 0 c-338 0
-435 -3 -438 -12z m-948 -2912 c19 -3 42 -7 50 -9 8 -2 33 -7 54 -12 22 -4 51
-14 65 -21 14 -8 32 -14 40 -14 33 0 267 -138 331 -196 94 -85 210 -211 210
-228 0 -4 11 -22 24 -39 32 -42 98 -169 124 -240 63 -166 81 -387 46 -547 -3
-14 -7 -36 -10 -50 -23 -121 -127 -327 -224 -445 -51 -63 -177 -179 -244 -227
-102 -72 -251 -143 -344 -163 -12 -3 -32 -7 -44 -10 -70 -16 -105 -19 -223
-19 -118 0 -162 4 -235 20 -24 5 -52 12 -57 13 -2 1 -6 2 -10 2 -28 6 -118 41
-173 69 -224 113 -411 304 -517 530 -25 52 -46 102 -48 110 -2 8 -11 42 -19
75 -27 101 -36 173 -35 285 0 47 0 94 0 105 0 29 37 210 51 242 6 15 12 31 13
36 2 4 4 9 5 12 1 3 3 9 4 13 0 4 20 46 44 93 45 89 128 207 198 281 158 165
425 309 617 331 21 3 40 7 42 9 5 5 225 1 265 -6z"/>
<path d="M209 7471 c-5 -14 -12 -33 -16 -41 -3 -8 -7 -21 -9 -28 -2 -10 -39
-135 -62 -207 -3 -11 -7 -23 -8 -27 -1 -5 -2 -9 -4 -10 -1 -2 -3 -10 -5 -18
-5 -17 -82 -264 -93 -295 -4 -11 -8 -394 -9 -851 l-3 -830 487 0 c482 0 488 0
497 21 5 11 8 23 8 27 -1 4 3 20 9 35 6 15 12 35 14 43 2 8 36 116 76 240 39
124 73 232 74 240 2 8 4 16 5 18 2 1 3 5 4 10 1 4 5 13 9 20 5 6 6 12 2 12 -3
0 1 14 10 30 9 17 13 30 11 30 -3 0 6 33 20 73 14 39 27 79 29 88 2 9 15 54
30 100 15 46 28 89 29 94 2 6 6 17 9 25 3 8 20 62 37 120 17 58 34 112 37 120
3 8 7 20 8 25 2 6 12 39 24 75 12 36 23 74 25 85 3 11 14 47 26 80 12 33 24
69 26 80 3 11 7 27 9 35 2 8 4 16 5 18 2 1 4 7 5 12 1 6 4 12 5 15 1 3 3 8 4
13 1 4 9 30 18 57 9 28 28 91 43 140 15 50 30 99 35 110 10 24 29 84 35 111 2
10 11 39 19 63 9 24 16 49 16 56 0 11 -146 13 -741 13 l-740 0 -10 -27z"/>
<path d="M4209 7055 c-2 -2 -33 -6 -69 -9 -104 -8 -248 -36 -375 -71 -33 -10
-64 -18 -70 -20 -5 -1 -19 -5 -30 -9 -11 -5 -33 -13 -50 -18 -99 -35 -306
-131 -337 -157 -10 -8 -18 -11 -18 -6 0 4 -15 -4 -34 -19 -19 -14 -37 -26 -40
-26 -3 0 -45 -27 -94 -60 -196 -133 -401 -325 -527 -495 -17 -22 -33 -41 -37
-43 -5 -2 -8 -8 -8 -13 0 -6 -9 -19 -20 -31 -10 -11 -26 -35 -34 -53 -9 -18
-22 -38 -31 -45 -8 -7 -15 -19 -15 -26 0 -8 -3 -14 -7 -14 -5 0 -13 -10 -19
-23 -6 -12 -33 -65 -60 -117 -28 -52 -60 -120 -73 -150 -12 -30 -26 -64 -31
-75 -9 -20 -39 -100 -44 -120 -1 -5 -10 -35 -19 -65 -9 -30 -18 -66 -21 -80
-3 -14 -12 -56 -20 -95 -33 -156 -40 -236 -40 -450 0 -241 11 -334 65 -555 23
-96 78 -262 90 -274 5 -6 9 -16 9 -24 0 -17 121 -266 132 -270 4 -2 8 -8 8
-14 0 -5 14 -29 30 -53 17 -24 30 -48 30 -53 0 -6 3 -12 8 -14 4 -1 35 -42 69
-90 35 -47 80 -106 100 -130 72 -83 269 -272 315 -303 8 -5 43 -31 78 -57 l62
-48 1802 0 1802 0 -4 33 c-2 17 -3 41 -3 52 0 11 0 88 0 170 1 83 1 157 1 165
0 8 0 96 -1 195 0 99 0 187 0 195 1 8 1 137 1 285 0 149 0 277 0 285 0 8 0 96
-1 195 0 99 0 187 0 195 1 8 1 137 1 285 0 149 0 276 0 283 0 13 0 111 -1 140
0 9 0 152 0 317 0 165 0 309 0 320 0 11 0 155 0 320 0 165 0 309 0 320 0 11 1
91 3 178 2 86 1 158 -2 158 -3 1 -275 2 -605 3 l-601 1 1 -92 c1 -51 -2 -93
-5 -93 -3 0 -37 15 -76 34 -38 19 -98 46 -134 60 -36 15 -74 31 -85 36 -17 7
-120 42 -135 45 -3 1 -25 7 -50 14 -25 7 -52 14 -60 16 -8 2 -35 8 -59 15 -23
6 -45 9 -48 6 -3 -3 -13 -1 -23 4 -9 5 -40 11 -68 14 -29 3 -57 8 -63 12 -12
7 -453 16 -460 9z m331 -1179 c25 -2 45 -5 45 -6 0 -1 13 -4 29 -6 17 -3 61
-16 99 -29 248 -87 466 -260 604 -480 53 -83 111 -208 128 -275 35 -132 37
-146 39 -300 1 -125 -8 -242 -20 -262 -3 -4 -7 -17 -10 -28 -2 -11 -6 -28 -8
-39 -8 -35 -59 -156 -89 -211 -118 -214 -303 -395 -497 -486 -62 -29 -194 -76
-225 -80 -16 -2 -41 -7 -55 -10 -14 -3 -81 -7 -150 -9 -184 -5 -308 20 -473
93 -26 12 -50 23 -55 24 -10 2 -156 98 -162 106 -3 4 -26 23 -51 44 -108 87
-224 229 -285 351 -40 78 -91 225 -98 282 -3 22 -8 51 -12 65 -7 32 -7 235 0
278 11 64 16 87 21 112 10 43 13 55 15 55 1 0 3 7 5 17 6 30 78 193 104 233
74 116 218 276 317 352 40 31 202 127 218 129 8 1 29 9 47 17 70 32 137 49
238 62 18 2 35 6 37 8 4 4 178 -1 244 -7z"/>
</g>
</svg>
