<svg width="688" height="375" viewBox="0 0 688 375" fill="none" xmlns="http://www.w3.org/2000/svg">
<path d="M621.87 0.933346C621.336 1.33335 620.936 32.2667 620.936 69.4667V137.2L612.403 133.333C597.87 126.667 585.603 123.867 568.003 123.067C543.47 121.867 525.603 125.6 504.936 136C472.403 152.4 448.403 181.733 438.67 217.333C436.803 224.133 436.27 230.933 436.27 249.333C436.403 271.2 436.67 273.333 440.136 284C454.536 327.6 487.203 359.067 529.87 370.267C556.403 377.067 590.403 374.133 612.67 362.8L620.936 358.667V364V369.333H654.27H687.603V184.667V1.30523e-05H655.203C637.336 1.30523e-05 622.27 0.400013 621.87 0.933346ZM574.936 188.8C584.936 191.333 593.07 196 601.87 204.4C629.203 230.267 629.07 267.2 601.603 293.2C580.803 312.933 549.336 314.933 526.403 298C495.87 275.6 492.67 232.133 519.47 205.467C535.47 189.6 555.336 183.6 574.936 188.8Z" fill="black"/>
<path d="M39.2029 99.5999C38.8029 100.267 30.0029 128.533 19.6029 162.667C9.2029 196.8 0.402904 225.067 0.0029039 225.733C-0.263763 226.267 17.8696 226.533 40.4029 226.4L81.3362 226L100.403 165.333C110.936 132 119.736 103.333 120.27 101.6L120.936 98.6665H80.4029C58.0029 98.6665 39.4696 99.0665 39.2029 99.5999Z" fill="black"/>
<path d="M247.336 124C199.736 132.533 160.403 167.867 146.803 214.267C142.536 228.933 141.07 252.267 143.47 267.467C156.536 348.4 242.936 396.133 318.403 364C323.603 361.867 328.136 360 328.403 360C328.67 360 328.936 362.133 328.936 364.667V369.333H361.603H394.27V248V126.667H361.603H328.936V132C328.936 134.933 328.67 137.333 328.27 137.333C327.87 137.333 324.536 135.867 320.936 134C306.936 126.933 292.403 123.733 272.27 123.2C262.003 123.067 250.803 123.333 247.336 124ZM282.936 188.667C299.47 192.933 316.403 207.467 324.003 223.733C329.203 234.933 330.403 251.867 326.936 264.8C322.403 281.467 309.336 296.8 293.203 304.4C280.936 310.133 264.536 311.067 251.736 306.667C207.603 291.867 194.27 240.667 225.603 206.8C240.936 190.267 262.67 183.467 282.936 188.667Z" fill="black"/>
</svg>
